# Blender v2.76 (sub 0) OBJ File: ''
# www.blender.org
o pipe_back
v 0.600000 0.400000 0.600000
v 0.400000 0.400000 0.600000
v 0.400000 0.400000 0.400000
v 0.600000 0.400000 0.400000
v 0.400000 1.000000 0.600000
v 0.400000 1.000000 0.400000
v 0.600000 1.000000 0.600000
v 0.600000 1.000000 0.400000
vt 0.000000 0.000000
vt 1.000000 0.000000
vt 1.000000 1.000000
vt 0.000000 1.000000
vn -0.000000 -1.000000 0.000000
vn -1.000000 0.000000 0.000000
vn 0.000000 1.000000 0.000000
vn 1.000000 -0.000000 0.000000
vn 0.000000 0.000000 -1.000000
vn -0.000000 0.000000 1.000000
usemtl None.005
s 1
f 1/1/1 2/2/1 3/3/1 4/4/1
f 2/1/2 5/2/2 6/3/2 3/4/2
f 5/1/3 7/2/3 8/3/3 6/4/3
f 7/1/4 1/2/4 4/3/4 8/4/4
f 4/1/5 3/2/5 6/3/5 8/4/5
f 7/1/6 5/2/6 2/3/6 1/4/6
