# Blender v2.76 (sub 0) OBJ File: ''
# www.blender.org
mtllib test.mtl
o Cube
v 2.000000 0.000000 -2.000000
v 2.000000 0.000000 0.000000
v -0.000000 0.000000 -0.000000
v 0.000000 0.000000 -2.000000
v 2.000000 2.000000 -2.000000
v 2.023797 0.657564 0.023798
v -0.023798 0.638795 0.023797
v 0.000000 2.000000 -2.000000
v 2.000000 0.000000 -2.000000
v 2.000000 0.000000 -2.000000
v 2.000000 0.000000 0.000000
v 2.000000 0.000000 0.000000
v 0.000000 0.000000 -2.000000
v 0.000000 0.000000 -2.000000
v 2.000000 2.000000 -2.000000
v 2.000000 2.000000 -1.999999
v -0.000000 0.000000 -0.000000
v 0.000000 0.000000 -0.000000
v 2.023797 0.657564 0.023798
v 2.023797 0.657564 0.023798
v -0.023798 0.638795 0.023797
v -0.023798 0.638795 0.023797
v 0.000000 2.000000 -2.000000
v 0.000000 2.000000 -2.000000
vt 0.000000 0.000000
vn 0.000000 -1.000000 0.000000
vn -0.007600 0.829800 0.558000
vn 0.999900 -0.000000 -0.011800
vn 0.000300 -0.036200 0.999300
vn -0.999900 -0.000000 -0.011800
vn 0.000000 0.000000 -1.000000
vn -0.000000 0.833300 0.552800
vn 0.999300 -0.036200 0.000000
vn -0.000000 -0.037200 0.999300
vn -0.999300 -0.037200 -0.000000
usemtl Material
s off
f 9/1/1 11/1/1 17/1/1
f 24/1/2 22/1/2 20/1/2
f 10/1/3 15/1/3 19/1/3
f 2/1/4 6/1/4 21/1/4
f 7/1/5 23/1/5 14/1/5
f 1/1/6 4/1/6 8/1/6
f 13/1/1 9/1/1 17/1/1
f 16/1/7 24/1/7 20/1/7
f 12/1/8 10/1/8 19/1/8
f 18/1/9 2/1/9 21/1/9
f 3/1/10 7/1/10 14/1/10
f 5/1/6 1/1/6 8/1/6
